<mxfile host="app.diagrams.net" modified="2023-09-30T09:40:47.285Z" agent="Mozilla/5.0 (Windows NT 10.0; Win64; x64) AppleWebKit/537.36 (KHTML, like Gecko) Chrome/117.0.0.0 Safari/537.36 Edg/117.0.2045.41" etag="Mme-7PwlZDUxCxaTzXIu" version="22.0.0" type="device">
  <diagram name="Page-1" id="dSw2Jt9SYq_HHn4oFAFV">
    <mxGraphModel dx="841" dy="497" grid="1" gridSize="10" guides="1" tooltips="1" connect="1" arrows="1" fold="1" page="1" pageScale="1" pageWidth="850" pageHeight="1100" math="0" shadow="0">
      <root>
        <mxCell id="0" />
        <mxCell id="1" parent="0" />
        <mxCell id="WNNkEzdKGOnc9n0u_PIv-2" value="us-east-1" style="shape=mxgraph.ibm.box;prType=region;fontStyle=0;verticalAlign=top;align=left;spacingLeft=32;spacingTop=4;fillColor=none;rounded=0;whiteSpace=wrap;html=1;strokeColor=#919191;strokeWidth=2;dashed=0;container=1;spacing=-4;collapsible=0;expand=0;recursiveResize=0;" vertex="1" parent="1">
          <mxGeometry x="85" y="400" width="680" height="560" as="geometry" />
        </mxCell>
        <mxCell id="WNNkEzdKGOnc9n0u_PIv-10" value="Public subnet - 10.0.1.0/24" style="points=[[0,0],[0.25,0],[0.5,0],[0.75,0],[1,0],[1,0.25],[1,0.5],[1,0.75],[1,1],[0.75,1],[0.5,1],[0.25,1],[0,1],[0,0.75],[0,0.5],[0,0.25]];outlineConnect=0;gradientColor=none;html=1;whiteSpace=wrap;fontSize=12;fontStyle=0;container=1;pointerEvents=0;collapsible=0;recursiveResize=0;shape=mxgraph.aws4.group;grIcon=mxgraph.aws4.group_security_group;grStroke=0;strokeColor=#248814;fillColor=#E9F3E6;verticalAlign=top;align=left;spacingLeft=30;fontColor=#248814;dashed=0;" vertex="1" parent="WNNkEzdKGOnc9n0u_PIv-2">
          <mxGeometry x="50" y="110" width="190" height="130" as="geometry" />
        </mxCell>
        <object label="" id="WNNkEzdKGOnc9n0u_PIv-12">
          <mxCell style="sketch=0;aspect=fixed;pointerEvents=1;shadow=0;dashed=0;html=1;strokeColor=none;labelPosition=center;verticalLabelPosition=bottom;verticalAlign=top;align=center;fillColor=#00188D;shape=mxgraph.mscae.enterprise.web_server" vertex="1" parent="WNNkEzdKGOnc9n0u_PIv-10">
            <mxGeometry x="30" y="30" width="38" height="50" as="geometry" />
          </mxCell>
        </object>
        <mxCell id="WNNkEzdKGOnc9n0u_PIv-13" value="Web Server VM&lt;br&gt;( 2xm5a.4xlarge)" style="text;strokeColor=none;align=center;fillColor=none;html=1;verticalAlign=middle;whiteSpace=wrap;rounded=0;" vertex="1" parent="WNNkEzdKGOnc9n0u_PIv-10">
          <mxGeometry x="8" y="90" width="112" height="30" as="geometry" />
        </mxCell>
        <mxCell id="WNNkEzdKGOnc9n0u_PIv-20" value="Public subnet - 10.0.2.0/24" style="points=[[0,0],[0.25,0],[0.5,0],[0.75,0],[1,0],[1,0.25],[1,0.5],[1,0.75],[1,1],[0.75,1],[0.5,1],[0.25,1],[0,1],[0,0.75],[0,0.5],[0,0.25]];outlineConnect=0;gradientColor=none;html=1;whiteSpace=wrap;fontSize=12;fontStyle=0;container=1;pointerEvents=0;collapsible=0;recursiveResize=0;shape=mxgraph.aws4.group;grIcon=mxgraph.aws4.group_security_group;grStroke=0;strokeColor=#248814;fillColor=#E9F3E6;verticalAlign=top;align=left;spacingLeft=30;fontColor=#248814;dashed=0;" vertex="1" parent="WNNkEzdKGOnc9n0u_PIv-2">
          <mxGeometry x="390" y="110" width="190" height="130" as="geometry" />
        </mxCell>
        <object label="" id="WNNkEzdKGOnc9n0u_PIv-21">
          <mxCell style="sketch=0;aspect=fixed;pointerEvents=1;shadow=0;dashed=0;html=1;strokeColor=none;labelPosition=center;verticalLabelPosition=bottom;verticalAlign=top;align=center;fillColor=#00188D;shape=mxgraph.mscae.enterprise.web_server" vertex="1" parent="WNNkEzdKGOnc9n0u_PIv-20">
            <mxGeometry x="30" y="30" width="38" height="50" as="geometry" />
          </mxCell>
        </object>
        <mxCell id="WNNkEzdKGOnc9n0u_PIv-22" value="Web Server VM&lt;br&gt;( 2xm5a.4xlarge)" style="text;strokeColor=none;align=center;fillColor=none;html=1;verticalAlign=middle;whiteSpace=wrap;rounded=0;" vertex="1" parent="WNNkEzdKGOnc9n0u_PIv-20">
          <mxGeometry x="8" y="90" width="112" height="30" as="geometry" />
        </mxCell>
        <mxCell id="WNNkEzdKGOnc9n0u_PIv-4" value="Virtual Private Cloud (VPC) 10.0.0.0/16" style="points=[[0,0],[0.25,0],[0.5,0],[0.75,0],[1,0],[1,0.25],[1,0.5],[1,0.75],[1,1],[0.75,1],[0.5,1],[0.25,1],[0,1],[0,0.75],[0,0.5],[0,0.25]];outlineConnect=0;gradientColor=none;html=1;whiteSpace=wrap;fontSize=12;fontStyle=0;container=1;pointerEvents=0;collapsible=0;recursiveResize=0;shape=mxgraph.aws4.group;grIcon=mxgraph.aws4.group_vpc;strokeColor=#248814;fillColor=none;verticalAlign=top;align=left;spacingLeft=30;fontColor=#AAB7B8;dashed=0;" vertex="1" parent="WNNkEzdKGOnc9n0u_PIv-2">
          <mxGeometry x="20" y="30" width="650" height="510" as="geometry" />
        </mxCell>
        <mxCell id="WNNkEzdKGOnc9n0u_PIv-70" style="edgeStyle=orthogonalEdgeStyle;rounded=0;orthogonalLoop=1;jettySize=auto;html=1;exitX=0.5;exitY=1;exitDx=0;exitDy=0;" edge="1" parent="WNNkEzdKGOnc9n0u_PIv-4" source="WNNkEzdKGOnc9n0u_PIv-31" target="WNNkEzdKGOnc9n0u_PIv-68">
          <mxGeometry relative="1" as="geometry" />
        </mxCell>
        <mxCell id="WNNkEzdKGOnc9n0u_PIv-31" value="Auto Scaling group" style="points=[[0,0],[0.25,0],[0.5,0],[0.75,0],[1,0],[1,0.25],[1,0.5],[1,0.75],[1,1],[0.75,1],[0.5,1],[0.25,1],[0,1],[0,0.75],[0,0.5],[0,0.25]];outlineConnect=0;gradientColor=none;html=1;whiteSpace=wrap;fontSize=12;fontStyle=0;container=1;pointerEvents=0;collapsible=0;recursiveResize=0;shape=mxgraph.aws4.groupCenter;grIcon=mxgraph.aws4.group_auto_scaling_group;grStroke=1;strokeColor=#D86613;fillColor=none;verticalAlign=top;align=center;fontColor=#D86613;dashed=1;spacingTop=25;" vertex="1" parent="WNNkEzdKGOnc9n0u_PIv-4">
          <mxGeometry x="10" y="110" width="560" height="100" as="geometry" />
        </mxCell>
        <mxCell id="WNNkEzdKGOnc9n0u_PIv-68" value="" style="sketch=0;outlineConnect=0;fontColor=#232F3E;gradientColor=none;fillColor=#8C4FFF;strokeColor=none;dashed=0;verticalLabelPosition=bottom;verticalAlign=top;align=center;html=1;fontSize=12;fontStyle=0;aspect=fixed;pointerEvents=1;shape=mxgraph.aws4.application_load_balancer;" vertex="1" parent="WNNkEzdKGOnc9n0u_PIv-4">
          <mxGeometry x="275" y="230" width="50" height="50" as="geometry" />
        </mxCell>
        <mxCell id="WNNkEzdKGOnc9n0u_PIv-5" value="Availability Zone 1" style="fillColor=none;strokeColor=#147EBA;dashed=1;verticalAlign=top;fontStyle=0;fontColor=#147EBA;whiteSpace=wrap;html=1;" vertex="1" parent="WNNkEzdKGOnc9n0u_PIv-2">
          <mxGeometry x="40" y="70" width="230" height="440" as="geometry" />
        </mxCell>
        <mxCell id="WNNkEzdKGOnc9n0u_PIv-11" value="Private subnet&amp;nbsp;- 10.0.3.0/24" style="points=[[0,0],[0.25,0],[0.5,0],[0.75,0],[1,0],[1,0.25],[1,0.5],[1,0.75],[1,1],[0.75,1],[0.5,1],[0.25,1],[0,1],[0,0.75],[0,0.5],[0,0.25]];outlineConnect=0;gradientColor=none;html=1;whiteSpace=wrap;fontSize=12;fontStyle=0;container=1;pointerEvents=0;collapsible=0;recursiveResize=0;shape=mxgraph.aws4.group;grIcon=mxgraph.aws4.group_security_group;grStroke=0;strokeColor=#147EBA;fillColor=#E6F2F8;verticalAlign=top;align=left;spacingLeft=30;fontColor=#147EBA;dashed=0;" vertex="1" parent="WNNkEzdKGOnc9n0u_PIv-2">
          <mxGeometry x="50" y="300" width="200" height="200" as="geometry" />
        </mxCell>
        <mxCell id="WNNkEzdKGOnc9n0u_PIv-16" value="" style="sketch=0;aspect=fixed;pointerEvents=1;shadow=0;dashed=0;html=1;strokeColor=none;labelPosition=center;verticalLabelPosition=bottom;verticalAlign=top;align=center;fillColor=#00188D;shape=mxgraph.mscae.enterprise.database_server" vertex="1" parent="WNNkEzdKGOnc9n0u_PIv-11">
          <mxGeometry x="20" y="125" width="38" height="50" as="geometry" />
        </mxCell>
        <mxCell id="WNNkEzdKGOnc9n0u_PIv-15" value="App Server VM&lt;br&gt;(m5a.4xlarge)" style="text;strokeColor=none;align=center;fillColor=none;html=1;verticalAlign=middle;whiteSpace=wrap;rounded=0;" vertex="1" parent="WNNkEzdKGOnc9n0u_PIv-11">
          <mxGeometry x="80" y="40" width="90" height="30" as="geometry" />
        </mxCell>
        <mxCell id="WNNkEzdKGOnc9n0u_PIv-18" value="Master DB&amp;nbsp;&lt;br&gt;(db.m5.4xlarge)" style="text;strokeColor=none;align=center;fillColor=none;html=1;verticalAlign=middle;whiteSpace=wrap;rounded=0;" vertex="1" parent="WNNkEzdKGOnc9n0u_PIv-11">
          <mxGeometry x="70" y="125" width="110" height="55" as="geometry" />
        </mxCell>
        <mxCell id="WNNkEzdKGOnc9n0u_PIv-19" value="Availability Zone 2" style="fillColor=none;strokeColor=#147EBA;dashed=1;verticalAlign=top;fontStyle=0;fontColor=#147EBA;whiteSpace=wrap;html=1;" vertex="1" parent="WNNkEzdKGOnc9n0u_PIv-2">
          <mxGeometry x="380" y="70" width="230" height="440" as="geometry" />
        </mxCell>
        <mxCell id="WNNkEzdKGOnc9n0u_PIv-23" value="Private subnet&amp;nbsp;- 10.0.4.0/24" style="points=[[0,0],[0.25,0],[0.5,0],[0.75,0],[1,0],[1,0.25],[1,0.5],[1,0.75],[1,1],[0.75,1],[0.5,1],[0.25,1],[0,1],[0,0.75],[0,0.5],[0,0.25]];outlineConnect=0;gradientColor=none;html=1;whiteSpace=wrap;fontSize=12;fontStyle=0;container=1;pointerEvents=0;collapsible=0;recursiveResize=0;shape=mxgraph.aws4.group;grIcon=mxgraph.aws4.group_security_group;grStroke=0;strokeColor=#147EBA;fillColor=#E6F2F8;verticalAlign=top;align=left;spacingLeft=30;fontColor=#147EBA;dashed=0;" vertex="1" parent="WNNkEzdKGOnc9n0u_PIv-2">
          <mxGeometry x="390" y="300" width="190" height="200" as="geometry" />
        </mxCell>
        <mxCell id="WNNkEzdKGOnc9n0u_PIv-24" value="" style="sketch=0;aspect=fixed;pointerEvents=1;shadow=0;dashed=0;html=1;strokeColor=none;labelPosition=center;verticalLabelPosition=bottom;verticalAlign=top;align=center;fillColor=#00188D;shape=mxgraph.mscae.enterprise.database_server" vertex="1" parent="WNNkEzdKGOnc9n0u_PIv-23">
          <mxGeometry x="20" y="125" width="38" height="50" as="geometry" />
        </mxCell>
        <mxCell id="WNNkEzdKGOnc9n0u_PIv-25" value="App Server VM&lt;br&gt;(m5a.4xlarge)" style="text;strokeColor=none;align=center;fillColor=none;html=1;verticalAlign=middle;whiteSpace=wrap;rounded=0;" vertex="1" parent="WNNkEzdKGOnc9n0u_PIv-23">
          <mxGeometry x="80" y="40" width="90" height="30" as="geometry" />
        </mxCell>
        <mxCell id="WNNkEzdKGOnc9n0u_PIv-26" value="Replica DB&amp;nbsp;&lt;br&gt;(db.m5.4xlarge)" style="text;strokeColor=none;align=center;fillColor=none;html=1;verticalAlign=middle;whiteSpace=wrap;rounded=0;" vertex="1" parent="WNNkEzdKGOnc9n0u_PIv-23">
          <mxGeometry x="70" y="125" width="110" height="55" as="geometry" />
        </mxCell>
        <mxCell id="WNNkEzdKGOnc9n0u_PIv-27" value="" style="sketch=0;aspect=fixed;pointerEvents=1;shadow=0;dashed=0;html=1;strokeColor=none;labelPosition=center;verticalLabelPosition=bottom;verticalAlign=top;align=center;fillColor=#00188D;shape=mxgraph.mscae.enterprise.application_server" vertex="1" parent="WNNkEzdKGOnc9n0u_PIv-23">
          <mxGeometry x="20" y="40" width="43" height="50" as="geometry" />
        </mxCell>
        <mxCell id="WNNkEzdKGOnc9n0u_PIv-35" style="edgeStyle=orthogonalEdgeStyle;rounded=0;orthogonalLoop=1;jettySize=auto;html=1;exitX=0.5;exitY=0.99;exitDx=0;exitDy=0;exitPerimeter=0;entryX=0.5;entryY=0;entryDx=0;entryDy=0;entryPerimeter=0;" edge="1" parent="WNNkEzdKGOnc9n0u_PIv-23" source="WNNkEzdKGOnc9n0u_PIv-27" target="WNNkEzdKGOnc9n0u_PIv-24">
          <mxGeometry relative="1" as="geometry" />
        </mxCell>
        <mxCell id="WNNkEzdKGOnc9n0u_PIv-33" style="edgeStyle=orthogonalEdgeStyle;rounded=0;orthogonalLoop=1;jettySize=auto;html=1;exitX=1;exitY=0.5;exitDx=0;exitDy=0;entryX=0;entryY=0.5;entryDx=0;entryDy=0;entryPerimeter=0;" edge="1" parent="WNNkEzdKGOnc9n0u_PIv-2" source="WNNkEzdKGOnc9n0u_PIv-18" target="WNNkEzdKGOnc9n0u_PIv-24">
          <mxGeometry relative="1" as="geometry" />
        </mxCell>
        <mxCell id="WNNkEzdKGOnc9n0u_PIv-73" style="edgeStyle=orthogonalEdgeStyle;rounded=0;orthogonalLoop=1;jettySize=auto;html=1;" edge="1" parent="WNNkEzdKGOnc9n0u_PIv-2" source="WNNkEzdKGOnc9n0u_PIv-55" target="WNNkEzdKGOnc9n0u_PIv-11">
          <mxGeometry relative="1" as="geometry" />
        </mxCell>
        <mxCell id="WNNkEzdKGOnc9n0u_PIv-55" value="" style="sketch=0;outlineConnect=0;fontColor=#232F3E;gradientColor=none;fillColor=#8C4FFF;strokeColor=none;dashed=0;verticalLabelPosition=bottom;verticalAlign=top;align=center;html=1;fontSize=12;fontStyle=0;aspect=fixed;pointerEvents=1;shape=mxgraph.aws4.nat_gateway;" vertex="1" parent="WNNkEzdKGOnc9n0u_PIv-2">
          <mxGeometry x="185" y="150" width="44" height="44" as="geometry" />
        </mxCell>
        <mxCell id="WNNkEzdKGOnc9n0u_PIv-74" style="edgeStyle=orthogonalEdgeStyle;rounded=0;orthogonalLoop=1;jettySize=auto;html=1;" edge="1" parent="WNNkEzdKGOnc9n0u_PIv-2" source="WNNkEzdKGOnc9n0u_PIv-56" target="WNNkEzdKGOnc9n0u_PIv-23">
          <mxGeometry relative="1" as="geometry" />
        </mxCell>
        <mxCell id="WNNkEzdKGOnc9n0u_PIv-56" value="" style="sketch=0;outlineConnect=0;fontColor=#232F3E;gradientColor=none;fillColor=#8C4FFF;strokeColor=none;dashed=0;verticalLabelPosition=bottom;verticalAlign=top;align=center;html=1;fontSize=12;fontStyle=0;aspect=fixed;pointerEvents=1;shape=mxgraph.aws4.nat_gateway;" vertex="1" parent="WNNkEzdKGOnc9n0u_PIv-2">
          <mxGeometry x="515" y="150" width="44" height="44" as="geometry" />
        </mxCell>
        <mxCell id="WNNkEzdKGOnc9n0u_PIv-67" style="edgeStyle=orthogonalEdgeStyle;rounded=0;orthogonalLoop=1;jettySize=auto;html=1;" edge="1" parent="WNNkEzdKGOnc9n0u_PIv-2" source="WNNkEzdKGOnc9n0u_PIv-54" target="WNNkEzdKGOnc9n0u_PIv-31">
          <mxGeometry relative="1" as="geometry" />
        </mxCell>
        <mxCell id="WNNkEzdKGOnc9n0u_PIv-54" value="" style="sketch=0;outlineConnect=0;fontColor=#232F3E;gradientColor=none;fillColor=#8C4FFF;strokeColor=none;dashed=0;verticalLabelPosition=bottom;verticalAlign=top;align=center;html=1;fontSize=12;fontStyle=0;aspect=fixed;pointerEvents=1;shape=mxgraph.aws4.application_load_balancer;" vertex="1" parent="WNNkEzdKGOnc9n0u_PIv-2">
          <mxGeometry x="305" y="70" width="50" height="50" as="geometry" />
        </mxCell>
        <mxCell id="WNNkEzdKGOnc9n0u_PIv-14" value="" style="sketch=0;aspect=fixed;pointerEvents=1;shadow=0;dashed=0;html=1;strokeColor=none;labelPosition=center;verticalLabelPosition=bottom;verticalAlign=top;align=center;fillColor=#00188D;shape=mxgraph.mscae.enterprise.application_server" vertex="1" parent="WNNkEzdKGOnc9n0u_PIv-2">
          <mxGeometry x="70" y="340" width="43" height="50" as="geometry" />
        </mxCell>
        <mxCell id="WNNkEzdKGOnc9n0u_PIv-34" style="edgeStyle=orthogonalEdgeStyle;rounded=0;orthogonalLoop=1;jettySize=auto;html=1;exitX=0.5;exitY=0.99;exitDx=0;exitDy=0;exitPerimeter=0;entryX=0.5;entryY=0;entryDx=0;entryDy=0;entryPerimeter=0;" edge="1" parent="WNNkEzdKGOnc9n0u_PIv-2" source="WNNkEzdKGOnc9n0u_PIv-14" target="WNNkEzdKGOnc9n0u_PIv-16">
          <mxGeometry relative="1" as="geometry" />
        </mxCell>
        <mxCell id="WNNkEzdKGOnc9n0u_PIv-32" value="Auto Scaling group" style="points=[[0,0],[0.25,0],[0.5,0],[0.75,0],[1,0],[1,0.25],[1,0.5],[1,0.75],[1,1],[0.75,1],[0.5,1],[0.25,1],[0,1],[0,0.75],[0,0.5],[0,0.25]];outlineConnect=0;gradientColor=none;html=1;whiteSpace=wrap;fontSize=12;fontStyle=0;container=1;pointerEvents=0;collapsible=0;recursiveResize=0;shape=mxgraph.aws4.groupCenter;grIcon=mxgraph.aws4.group_auto_scaling_group;grStroke=1;strokeColor=#D86613;fillColor=none;verticalAlign=top;align=center;fontColor=#D86613;dashed=1;spacingTop=25;" vertex="1" parent="WNNkEzdKGOnc9n0u_PIv-2">
          <mxGeometry x="40" y="327.5" width="560" height="75" as="geometry" />
        </mxCell>
        <mxCell id="WNNkEzdKGOnc9n0u_PIv-69" style="edgeStyle=orthogonalEdgeStyle;rounded=0;orthogonalLoop=1;jettySize=auto;html=1;" edge="1" parent="WNNkEzdKGOnc9n0u_PIv-2" source="WNNkEzdKGOnc9n0u_PIv-68" target="WNNkEzdKGOnc9n0u_PIv-32">
          <mxGeometry relative="1" as="geometry" />
        </mxCell>
        <mxCell id="WNNkEzdKGOnc9n0u_PIv-41" value="" style="group" vertex="1" connectable="0" parent="1">
          <mxGeometry x="85" y="270" width="130" height="90" as="geometry" />
        </mxCell>
        <mxCell id="WNNkEzdKGOnc9n0u_PIv-44" value="" style="rounded=0;whiteSpace=wrap;html=1;" vertex="1" parent="WNNkEzdKGOnc9n0u_PIv-41">
          <mxGeometry width="130" height="90" as="geometry" />
        </mxCell>
        <mxCell id="WNNkEzdKGOnc9n0u_PIv-36" value="" style="sketch=0;outlineConnect=0;fontColor=#232F3E;gradientColor=none;fillColor=#232F3D;strokeColor=none;dashed=0;verticalLabelPosition=bottom;verticalAlign=top;align=center;html=1;fontSize=12;fontStyle=0;aspect=fixed;pointerEvents=1;shape=mxgraph.aws4.users;" vertex="1" parent="WNNkEzdKGOnc9n0u_PIv-41">
          <mxGeometry x="10" width="40" height="40" as="geometry" />
        </mxCell>
        <mxCell id="WNNkEzdKGOnc9n0u_PIv-38" value="" style="sketch=0;outlineConnect=0;fontColor=#232F3E;gradientColor=none;fillColor=#232F3D;strokeColor=none;dashed=0;verticalLabelPosition=bottom;verticalAlign=top;align=center;html=1;fontSize=12;fontStyle=0;aspect=fixed;pointerEvents=1;shape=mxgraph.aws4.client;" vertex="1" parent="WNNkEzdKGOnc9n0u_PIv-41">
          <mxGeometry x="75" y="2.25" width="39" height="38" as="geometry" />
        </mxCell>
        <mxCell id="WNNkEzdKGOnc9n0u_PIv-39" value="User" style="text;strokeColor=none;align=center;fillColor=none;html=1;verticalAlign=middle;whiteSpace=wrap;rounded=0;" vertex="1" parent="WNNkEzdKGOnc9n0u_PIv-41">
          <mxGeometry y="56.25" width="60" height="33.75" as="geometry" />
        </mxCell>
        <mxCell id="WNNkEzdKGOnc9n0u_PIv-40" value="Client machine" style="text;strokeColor=none;align=center;fillColor=none;html=1;verticalAlign=middle;whiteSpace=wrap;rounded=0;" vertex="1" parent="WNNkEzdKGOnc9n0u_PIv-41">
          <mxGeometry x="64.5" y="56.25" width="60" height="33.75" as="geometry" />
        </mxCell>
        <mxCell id="WNNkEzdKGOnc9n0u_PIv-42" value="" style="sketch=0;points=[[0,0,0],[0.25,0,0],[0.5,0,0],[0.75,0,0],[1,0,0],[0,1,0],[0.25,1,0],[0.5,1,0],[0.75,1,0],[1,1,0],[0,0.25,0],[0,0.5,0],[0,0.75,0],[1,0.25,0],[1,0.5,0],[1,0.75,0]];outlineConnect=0;fontColor=#232F3E;fillColor=#8C4FFF;strokeColor=#ffffff;dashed=0;verticalLabelPosition=bottom;verticalAlign=top;align=center;html=1;fontSize=12;fontStyle=0;aspect=fixed;shape=mxgraph.aws4.resourceIcon;resIcon=mxgraph.aws4.route_53;" vertex="1" parent="1">
          <mxGeometry x="280" y="292.5" width="45" height="45" as="geometry" />
        </mxCell>
        <mxCell id="WNNkEzdKGOnc9n0u_PIv-45" style="edgeStyle=orthogonalEdgeStyle;rounded=0;orthogonalLoop=1;jettySize=auto;html=1;exitX=1;exitY=0.5;exitDx=0;exitDy=0;" edge="1" parent="1" source="WNNkEzdKGOnc9n0u_PIv-44" target="WNNkEzdKGOnc9n0u_PIv-42">
          <mxGeometry relative="1" as="geometry" />
        </mxCell>
        <mxCell id="WNNkEzdKGOnc9n0u_PIv-46" value="Amazon&lt;br&gt;Route 53" style="text;strokeColor=none;align=center;fillColor=none;html=1;verticalAlign=middle;whiteSpace=wrap;rounded=0;" vertex="1" parent="1">
          <mxGeometry x="272.5" y="257.75" width="60" height="33.75" as="geometry" />
        </mxCell>
        <mxCell id="WNNkEzdKGOnc9n0u_PIv-50" style="edgeStyle=orthogonalEdgeStyle;rounded=0;orthogonalLoop=1;jettySize=auto;html=1;exitX=1;exitY=0.5;exitDx=0;exitDy=0;exitPerimeter=0;" edge="1" parent="1" source="WNNkEzdKGOnc9n0u_PIv-47" target="WNNkEzdKGOnc9n0u_PIv-49">
          <mxGeometry relative="1" as="geometry" />
        </mxCell>
        <mxCell id="WNNkEzdKGOnc9n0u_PIv-72" style="edgeStyle=orthogonalEdgeStyle;rounded=0;orthogonalLoop=1;jettySize=auto;html=1;exitX=0.5;exitY=1;exitDx=0;exitDy=0;exitPerimeter=0;" edge="1" parent="1" source="WNNkEzdKGOnc9n0u_PIv-47" target="WNNkEzdKGOnc9n0u_PIv-53">
          <mxGeometry relative="1" as="geometry" />
        </mxCell>
        <mxCell id="WNNkEzdKGOnc9n0u_PIv-47" value="" style="sketch=0;points=[[0,0,0],[0.25,0,0],[0.5,0,0],[0.75,0,0],[1,0,0],[0,1,0],[0.25,1,0],[0.5,1,0],[0.75,1,0],[1,1,0],[0,0.25,0],[0,0.5,0],[0,0.75,0],[1,0.25,0],[1,0.5,0],[1,0.75,0]];outlineConnect=0;fontColor=#232F3E;fillColor=#8C4FFF;strokeColor=#ffffff;dashed=0;verticalLabelPosition=bottom;verticalAlign=top;align=center;html=1;fontSize=12;fontStyle=0;aspect=fixed;shape=mxgraph.aws4.resourceIcon;resIcon=mxgraph.aws4.cloudfront;" vertex="1" parent="1">
          <mxGeometry x="390" y="291.5" width="47" height="47" as="geometry" />
        </mxCell>
        <mxCell id="WNNkEzdKGOnc9n0u_PIv-48" style="edgeStyle=orthogonalEdgeStyle;rounded=0;orthogonalLoop=1;jettySize=auto;html=1;exitX=1;exitY=0.5;exitDx=0;exitDy=0;exitPerimeter=0;entryX=0;entryY=0.5;entryDx=0;entryDy=0;entryPerimeter=0;" edge="1" parent="1" source="WNNkEzdKGOnc9n0u_PIv-42" target="WNNkEzdKGOnc9n0u_PIv-47">
          <mxGeometry relative="1" as="geometry" />
        </mxCell>
        <mxCell id="WNNkEzdKGOnc9n0u_PIv-49" value="" style="sketch=0;points=[[0,0,0],[0.25,0,0],[0.5,0,0],[0.75,0,0],[1,0,0],[0,1,0],[0.25,1,0],[0.5,1,0],[0.75,1,0],[1,1,0],[0,0.25,0],[0,0.5,0],[0,0.75,0],[1,0.25,0],[1,0.5,0],[1,0.75,0]];outlineConnect=0;fontColor=#232F3E;fillColor=#7AA116;strokeColor=#ffffff;dashed=0;verticalLabelPosition=bottom;verticalAlign=top;align=center;html=1;fontSize=12;fontStyle=0;aspect=fixed;shape=mxgraph.aws4.resourceIcon;resIcon=mxgraph.aws4.s3;" vertex="1" parent="1">
          <mxGeometry x="500" y="291.5" width="48" height="48" as="geometry" />
        </mxCell>
        <mxCell id="WNNkEzdKGOnc9n0u_PIv-51" value="Amazon&lt;br&gt;CloudFront" style="text;strokeColor=none;align=center;fillColor=none;html=1;verticalAlign=middle;whiteSpace=wrap;rounded=0;" vertex="1" parent="1">
          <mxGeometry x="383.5" y="257.75" width="60" height="33.75" as="geometry" />
        </mxCell>
        <mxCell id="WNNkEzdKGOnc9n0u_PIv-52" value="Amazon&lt;br&gt;S3 Bucket" style="text;strokeColor=none;align=center;fillColor=none;html=1;verticalAlign=middle;whiteSpace=wrap;rounded=0;" vertex="1" parent="1">
          <mxGeometry x="494" y="257.75" width="60" height="33.75" as="geometry" />
        </mxCell>
        <mxCell id="WNNkEzdKGOnc9n0u_PIv-66" style="edgeStyle=orthogonalEdgeStyle;rounded=0;orthogonalLoop=1;jettySize=auto;html=1;" edge="1" parent="1" source="WNNkEzdKGOnc9n0u_PIv-53" target="WNNkEzdKGOnc9n0u_PIv-54">
          <mxGeometry relative="1" as="geometry" />
        </mxCell>
        <mxCell id="WNNkEzdKGOnc9n0u_PIv-53" value="" style="sketch=0;outlineConnect=0;fontColor=#232F3E;gradientColor=none;fillColor=#8C4FFF;strokeColor=none;dashed=0;verticalLabelPosition=bottom;verticalAlign=top;align=center;html=1;fontSize=12;fontStyle=0;aspect=fixed;pointerEvents=1;shape=mxgraph.aws4.internet_gateway;" vertex="1" parent="1">
          <mxGeometry x="390" y="380" width="50" height="50" as="geometry" />
        </mxCell>
        <mxCell id="WNNkEzdKGOnc9n0u_PIv-64" style="edgeStyle=orthogonalEdgeStyle;rounded=0;orthogonalLoop=1;jettySize=auto;html=1;" edge="1" parent="1" source="WNNkEzdKGOnc9n0u_PIv-55" target="WNNkEzdKGOnc9n0u_PIv-53">
          <mxGeometry relative="1" as="geometry">
            <Array as="points">
              <mxPoint x="292" y="410" />
            </Array>
          </mxGeometry>
        </mxCell>
        <mxCell id="WNNkEzdKGOnc9n0u_PIv-65" style="edgeStyle=orthogonalEdgeStyle;rounded=0;orthogonalLoop=1;jettySize=auto;html=1;" edge="1" parent="1" source="WNNkEzdKGOnc9n0u_PIv-56" target="WNNkEzdKGOnc9n0u_PIv-53">
          <mxGeometry relative="1" as="geometry">
            <Array as="points">
              <mxPoint x="622" y="410" />
            </Array>
          </mxGeometry>
        </mxCell>
        <mxCell id="WNNkEzdKGOnc9n0u_PIv-75" value="&lt;b style=&quot;font-size: 21px;&quot;&gt;Phong Phu Vu&lt;br style=&quot;font-size: 21px;&quot;&gt;Project 2&lt;/b&gt;" style="text;strokeColor=none;align=center;fillColor=none;html=1;verticalAlign=middle;whiteSpace=wrap;rounded=0;fontSize=21;" vertex="1" parent="1">
          <mxGeometry x="85" y="30" width="155" height="100" as="geometry" />
        </mxCell>
      </root>
    </mxGraphModel>
  </diagram>
</mxfile>
